<svg width="30" height="30" viewBox="0 0 30 30" fill="none" xmlns="http://www.w3.org/2000/svg">
<path d="M15 0C11.0218 0 7.20644 1.58035 4.3934 4.3934C1.58035 7.20644 0 11.0218 0 15C0 18.9782 1.58035 22.7936 4.3934 25.6066C7.20644 28.4197 11.0218 30 15 30C18.9782 30 22.7936 28.4197 25.6066 25.6066C28.4197 22.7936 30 18.9782 30 15C30 11.0218 28.4197 7.20644 25.6066 4.3934C22.7936 1.58035 18.9782 0 15 0ZM23.5518 20.4661L20.4643 23.5536L15 18.0875L9.53393 23.5518L6.44643 20.4643L11.9143 15L6.44822 9.53393L9.53572 6.44822L15 11.9125L20.4661 6.44643L23.5536 9.53393L18.0857 15L23.5518 20.4661Z" fill="#004973"/>
</svg>
